<?xml version="1.0" encoding="iso-8859-1"?>
<!-- Uploaded to: SVG Repo, www.svgrepo.com, Generator: SVG Repo Mixer Tools -->
<svg height="800px" width="800px" version="1.1" id="Layer_1" xmlns="http://www.w3.org/2000/svg" xmlns:xlink="http://www.w3.org/1999/xlink" 
	 viewBox="0 0 512 512" xml:space="preserve">
<g>
	<g>
		<polygon style="fill:#91CF96;" points="394.525,193.528 376.64,247.173 414.899,247.173 467.865,132.415 		"/>
		<polygon style="fill:#91CF96;" points="117.475,193.528 44.135,132.415 97.101,247.173 135.36,247.173 		"/>
	</g>
	<polygon style="fill:#5ABA63;" points="205.241,247.172 79.448,79.448 135.353,247.172 	"/>
	<polygon style="fill:#91CF96;" points="218.55,247.172 228.428,181.998 167.721,35.31 167.721,197.146 205.238,247.172 	"/>
	<polygon style="fill:#5ABA63;" points="293.45,247.172 256.004,0 218.548,247.172 	"/>
	<polygon style="fill:#91CF96;" points="306.759,247.172 344.277,197.146 344.277,35.31 283.578,181.998 293.447,247.172 	"/>
	<polygon style="fill:#5ABA63;" points="376.644,247.172 432.549,79.448 306.756,247.172 	"/>
	<g>
		<polygon style="fill:#7F5B53;" points="70.621,291.31 441.379,291.31 441.379,247.172 70.621,247.172 		"/>
		<polygon style="fill:#7F5B53;" points="397.241,512 114.759,512 105.931,476.69 406.069,476.69 		"/>
	</g>
	<polygon style="fill:#AF8066;" points="375.172,476.69 406.069,291.31 105.931,291.31 136.828,476.69 	"/>
	<g>
		<path style="fill:#D9AA94;" d="M220.69,353.103h-8.828c-4.873,0-8.828-3.946-8.828-8.828c0-4.882,3.955-8.828,8.828-8.828h8.828
			c4.873,0,8.828,3.946,8.828,8.828C229.517,349.158,225.562,353.103,220.69,353.103"/>
		<path style="fill:#D9AA94;" d="M264.828,423.724H256c-4.873,0-8.828-3.946-8.828-8.828c0-4.882,3.955-8.828,8.828-8.828h8.828
			c4.873,0,8.828,3.946,8.828,8.828C273.655,419.778,269.7,423.724,264.828,423.724"/>
		<path style="fill:#D9AA94;" d="M386.895,406.356c-0.486-0.079-0.918-0.291-1.421-0.291h-85.336c-4.873,0-8.828,3.955-8.828,8.828
			c0,4.882,3.955,8.828,8.828,8.828h83.862L386.895,406.356z"/>
		<path style="fill:#D9AA94;" d="M176.552,335.448h-61.793c-0.503,0-0.945,0.203-1.421,0.291l2.895,17.364h60.319
			c4.873,0,8.828-3.946,8.828-8.828C185.379,339.394,181.425,335.448,176.552,335.448"/>
	</g>
</g>
</svg>